<?xml version="1.0" encoding="utf-8"?>
<!-- Generator: Adobe Illustrator 18.1.1, SVG Export Plug-In . SVG Version: 6.00 Build 0)  -->
<svg version="1.1" id="Layer_1" xmlns="http://www.w3.org/2000/svg" xmlns:xlink="http://www.w3.org/1999/xlink" x="0px" y="0px"
	 viewBox="0 0 600 600" enable-background="new 0 0 600 600" xml:space="preserve">
<g id="Layer_1_1_" display="none">
	<g display="inline">
		<g>
			<g>
				<path fill="#FFFFFF" d="M276.6,128c53.5-0.3,99.2,42.6,101.1,97.1c2.2,61.3-45.3,105.5-101,106.1
					c-56,0.5-102.4-46.1-102.3-101.8C174.5,173.4,220.2,128,276.6,128z"/>
				<path fill="#FFFFFF" d="M391,334.3c-39.7,15.5-57.4,42.8-55.9,83.6c-2.5,0.2-5,0.5-7.5,0.5c-64.3,0-128.7-0.1-193,0.2
					c-6.8,0-9.1-2.1-9.2-8.9c-0.2-26,9.4-48.2,27.8-65.9c10.9-10.4,24.1-18.3,36.3-27.2c4.2-3.1,7.5-1.1,11.3,1.8
					c39.1,30.2,81.4,36.2,126.4,15.4c9.7-4.5,18.1-12,27.2-17.9c1.3-0.8,3.7-1.4,4.9-0.8C369.4,320.9,379.4,327.1,391,334.3z"/>
				<path fill="#FFFFFF" d="M411.1,344.3c-35-0.1-63.8,28.4-64.1,63.3c-0.2,34.8,28,64,62.3,64.3c36.1,0.3,65.2-28.1,65.3-63.5
					C474.7,373.6,445.8,344.5,411.1,344.3z M447.6,414.6h-30v31.8h-14.4v-31.8h-29.4v-13.2h29.4v-31.2h14.4v31.2h30V414.6z"/>
			</g>
		</g>
		<g>
			<path fill="#FFFFFF" d="M300.1,6.6c39.6,0,78.1,7.7,114.2,23c34.9,14.8,66.3,35.9,93.2,62.9s48.1,58.3,62.9,93.2
				c15.3,36.2,23,74.6,23,114.2s-7.7,78.1-23,114.2c-14.8,34.9-35.9,66.3-62.9,93.2c-26.9,26.9-58.3,48.2-93.2,63
				c-36.2,15.3-74.6,23-114.2,23s-78.1-7.7-114.2-23c-34.9-14.8-66.3-35.9-93.2-62.9s-48.1-58.3-62.9-93.3
				c-15.3-36.1-23-74.6-23-114.2s7.7-78.1,23-114.2c14.8-34.9,35.9-66.3,62.9-93.2s58.3-48.1,93.2-62.9
				C222,14.3,260.5,6.6,300.1,6.6 M300.1,0C134.3,0,0.1,134.3,0.1,300s134.3,300,300,300s300-134.3,300-300S465.7,0,300.1,0L300.1,0
				z"/>
		</g>
	</g>
</g>
<g>
	<path fill="#FFFFFF" d="M160.6,551.8c-0.1,26.5,22.8,48.1,50.9,48.1l207.2,0.3c28.1,0.1,51.1-21.4,51.1-48L470.6,49
		c0.1-26.5-22.7-48.1-50.9-48.1L212.5,0.6c-28.1-0.1-51.1,21.4-51.1,48L160.6,551.8z"/>
	
		<rect x="167.8" y="60.2" transform="matrix(1 1.421124e-003 -1.421124e-003 1 0.4208 -0.4397)" fill="#E6F5F5" width="283.6" height="471.4"/>
	<path fill="#F3F3F3" d="M275.2,34.4c0,4.1,2.9,7.4,6.5,7.4l64.1,0.1c3.6,0,6.5-3.3,6.5-7.3l0,0c0-4.1-2.9-7.4-6.5-7.4l-64.1-0.1
		C278.1,27.1,275.2,30.4,275.2,34.4L275.2,34.4z"/>
	<path fill="#F3F3F3" d="M334.7,557.9c5.3,19.1-11.7,36.2-30.8,30.8c-8-2.2-14.3-8.6-16.5-16.6C282,553,299,536,318.2,541.3
		C326.2,543.6,332.5,549.9,334.7,557.9z"/>
	<path fill="#F3F3F3" d="M388.5,35.6c0,3.9,3.2,7.1,7.3,7.1c4,0,7.3-3.2,7.3-7.1s-3.2-7.1-7.3-7.1C391.7,28.4,388.5,31.6,388.5,35.6
		z"/>
</g>
<g>
	<g>
		<g>
			<path fill="#66499B" d="M303.6,212.5c27.4-0.1,50.8,21.8,51.7,49.7c1.1,31.4-23.2,54-51.7,54.3c-28.6,0.3-52.4-23.6-52.3-52.1
				C251.4,235.7,274.8,212.5,303.6,212.5z"/>
			<path fill="#66499B" d="M362.2,317.9c-20.3,7.9-29.3,21.9-28.6,42.8c-1.3,0.1-2.6,0.3-3.8,0.3c-32.9,0-65.8-0.1-98.8,0.1
				c-3.5,0-4.7-1.1-4.7-4.6c-0.1-13.3,4.8-24.7,14.2-33.7c5.5-5.3,12.3-9.4,18.6-13.9c2.2-1.6,3.8-0.6,5.8,1
				c20,15.4,41.6,18.5,64.7,7.9c5-2.3,9.2-6.2,13.9-9.2c0.7-0.4,1.9-0.7,2.5-0.4C351.1,311.2,356.2,314.3,362.2,317.9z"/>
			<path fill="#66499B" d="M372.4,323.1c-17.9-0.1-32.7,14.5-32.8,32.4c-0.1,17.8,14.3,32.8,31.9,32.9c18.4,0.2,33.4-14.3,33.4-32.5
				C405,338.1,390.2,323.2,372.4,323.1z M391.2,358.8h-14.4V375h-9v-16.2h-15v-6.6h15v-17.4h9v17.4h14.4V358.8z"/>
		</g>
	</g>
</g>
<g>
	<g>
		<path fill="#FFFFFF" d="M559.3,95.3c10.7,0,19.3,8.6,19.3,19.3s-8.6,19.3-19.3,19.3s-19.3-8.6-19.3-19.3S548.6,95.3,559.3,95.3
			 M559.3,91.7c-12.7,0-22.9,10.3-22.9,22.9s10.3,22.9,22.9,22.9s22.9-10.3,22.9-22.9S571.9,91.7,559.3,91.7L559.3,91.7z"/>
	</g>
</g>
<g>
	<g>
		<path fill="#FFFFFF" d="M103.7,410c10.7,0,19.3,8.6,19.3,19.3s-8.6,19.3-19.3,19.3s-19.3-8.6-19.3-19.3S93.1,410,103.7,410
			 M103.7,406.4c-12.7,0-22.9,10.3-22.9,22.9c0,12.7,10.3,22.9,22.9,22.9s22.9-10.3,22.9-22.9C126.7,416.7,116.5,406.4,103.7,406.4
			L103.7,406.4z"/>
	</g>
</g>
<g>
	<g>
		<path fill="#FFFFFF" d="M38,129.1c10.7,0,19.3,8.6,19.3,19.3s-8.6,19.3-19.3,19.3s-19.3-8.6-19.3-19.3
			C18.7,137.8,27.4,129.1,38,129.1 M38,125.5c-12.7,0-22.9,10.3-22.9,22.9c0,12.7,10.3,22.9,22.9,22.9S61,161.1,61,148.4
			C61,135.8,50.7,125.5,38,125.5L38,125.5z"/>
	</g>
</g>
</svg>
