<?xml version="1.0" encoding="utf-8"?>
<!-- Generator: Adobe Illustrator 18.0.0, SVG Export Plug-In . SVG Version: 6.00 Build 0)  -->
<!DOCTYPE svg PUBLIC "-//W3C//DTD SVG 1.1//EN" "http://www.w3.org/Graphics/SVG/1.1/DTD/svg11.dtd">
<svg version="1.1" id="Layer_1" xmlns="http://www.w3.org/2000/svg" xmlns:xlink="http://www.w3.org/1999/xlink" x="0px" y="0px"
	 viewBox="0 0 1000 1000" enable-background="new 0 0 1000 1000" xml:space="preserve">
<g>
	<g>
		<g>
			<path fill="#FFFFFF" d="M461,213.4c89.2-0.5,165.3,71,168.5,161.9c3.7,102.2-75.5,175.9-168.3,176.8
				c-93.3,0.9-170.7-76.8-170.5-169.6C290.9,289,367,213.3,461,213.4z"/>
			<path fill="#FFFFFF" d="M651.7,557.1c-66.1,25.8-95.6,71.4-93.2,139.3c-4.2,0.3-8.3,0.9-12.5,0.9c-107.2,0-214.5-0.1-321.7,0.3
				c-11.4,0-15.2-3.5-15.3-14.8c-0.4-43.4,15.6-80.4,46.3-109.8c18.1-17.3,40.1-30.5,60.5-45.3c7-5.1,12.5-1.9,18.9,3
				c65.1,50.3,135.6,60.4,210.7,25.6c16.2-7.5,30.1-20,45.3-29.9c2.1-1.4,6.2-2.4,8.1-1.3C615.7,534.9,632.3,545.2,651.7,557.1z"/>
			<path fill="#FFFFFF" d="M685.2,573.9c-58.3-0.2-106.4,47.3-106.8,105.5c-0.4,58,46.7,106.6,103.8,107.2
				c60.1,0.5,108.7-46.8,108.9-105.9C791.2,622.7,743,574.1,685.2,573.9z M746,691h-50v53h-24v-53h-49v-22h49v-52h24v52h50V691z"/>
		</g>
	</g>
	<g>
		<path fill="#FFFFFF" d="M500.1,11c66,0,130.1,12.9,190.3,38.4c58.2,24.6,110.5,59.9,155.4,104.8s80.2,97.2,104.8,155.4
			c25.5,60.3,38.4,124.3,38.4,190.3s-12.9,130.1-38.4,190.3c-24.6,58.2-59.9,110.5-104.8,155.4S748.6,926,690.4,950.6
			C630.1,976.1,566.1,989,500.1,989S370,976.1,309.7,950.6c-58.2-24.6-110.5-59.9-155.4-104.8S74.1,748.6,49.5,690.3
			C24,630.1,11.1,566,11.1,500S24,369.9,49.5,309.7c24.6-58.2,59.9-110.5,104.8-155.4s97.2-80.2,155.4-104.8
			C370,23.9,434.1,11,500.1,11 M500.1,0C223.9,0,0.1,223.9,0.1,500s223.9,500,500,500s500-223.9,500-500S776.2,0,500.1,0L500.1,0z"
			/>
	</g>
</g>
</svg>
