<?xml version="1.0" encoding="utf-8"?>
<!-- Generator: Adobe Illustrator 18.0.0, SVG Export Plug-In . SVG Version: 6.00 Build 0)  -->
<!DOCTYPE svg PUBLIC "-//W3C//DTD SVG 1.1//EN" "http://www.w3.org/Graphics/SVG/1.1/DTD/svg11.dtd">
<svg version="1.1" id="Layer_1" xmlns="http://www.w3.org/2000/svg" xmlns:xlink="http://www.w3.org/1999/xlink" x="0px" y="0px"
	 viewBox="0 0 1000 1000" enable-background="new 0 0 1000 1000" xml:space="preserve">
<g id="Layer_1_1_" display="none">
	<g display="inline">
		<g>
			<g>
				<path fill="#FFFFFF" d="M461,213.4c89.2-0.5,165.3,71,168.5,161.9c3.7,102.2-75.5,175.9-168.3,176.8
					c-93.3,0.9-170.7-76.8-170.5-169.6C290.9,289,367,213.3,461,213.4z"/>
				<path fill="#FFFFFF" d="M651.7,557.1c-66.1,25.8-95.6,71.4-93.2,139.3c-4.2,0.3-8.3,0.9-12.5,0.9c-107.2,0-214.5-0.1-321.7,0.3
					c-11.4,0-15.2-3.5-15.3-14.8c-0.4-43.4,15.6-80.4,46.3-109.8c18.1-17.3,40.1-30.5,60.5-45.3c7-5.1,12.5-1.9,18.9,3
					c65.1,50.3,135.6,60.4,210.7,25.6c16.2-7.5,30.1-20,45.3-29.9c2.1-1.4,6.2-2.4,8.1-1.3C615.7,534.9,632.3,545.2,651.7,557.1z"/>
				<path fill="#FFFFFF" d="M685.2,573.9c-58.3-0.2-106.4,47.3-106.8,105.5c-0.4,58,46.7,106.6,103.8,107.2
					c60.1,0.5,108.7-46.8,108.9-105.9C791.2,622.7,743,574.1,685.2,573.9z M746,691h-50v53h-24v-53h-49v-22h49v-52h24v52h50V691z"/>
			</g>
		</g>
		<g>
			<path fill="#FFFFFF" d="M500.1,11c66,0,130.1,12.9,190.3,38.4c58.2,24.6,110.5,59.9,155.4,104.8s80.2,97.2,104.8,155.4
				c25.5,60.3,38.4,124.3,38.4,190.3S976.1,630,950.6,690.2c-24.6,58.2-59.9,110.5-104.8,155.4s-97.2,80.4-155.4,105
				C630.1,976.1,566.1,989,500.1,989S370,976.1,309.7,950.6c-58.2-24.6-110.5-59.9-155.4-104.8S74.1,748.6,49.5,690.3
				C24,630.1,11.1,566,11.1,500S24,369.9,49.5,309.7c24.6-58.2,59.9-110.5,104.8-155.4s97.2-80.2,155.4-104.8
				C370,23.9,434.1,11,500.1,11 M500.1,0C223.9,0,0.1,223.9,0.1,500s223.9,500,500,500s500-223.9,500-500S776.2,0,500.1,0L500.1,0z"
				/>
		</g>
	</g>
</g>
<g>
	
		<line opacity="0.69" fill="none" stroke="#FFFFFF" stroke-width="9" stroke-linecap="round" stroke-linejoin="round" stroke-miterlimit="10" enable-background="new    " x1="891.4" y1="422.6" x2="991.3" y2="353.5"/>
	
		<line opacity="0.69" fill="none" stroke="#FFFFFF" stroke-width="9" stroke-linecap="round" stroke-linejoin="round" stroke-miterlimit="10" enable-background="new    " x1="994" y1="641.7" x2="894.1" y2="572.6"/>
	
		<line opacity="0.69" fill="none" stroke="#FFFFFF" stroke-width="9" stroke-linecap="round" stroke-linejoin="round" stroke-miterlimit="10" enable-background="new    " x1="896.9" y1="497.6" x2="991.3" y2="497.6"/>
	
		<line opacity="0.69" fill="none" stroke="#FFFFFF" stroke-width="9" stroke-linecap="round" stroke-linejoin="round" stroke-miterlimit="10" enable-background="new    " x1="101.6" y1="422.6" x2="1.7" y2="353.5"/>
	
		<line opacity="0.69" fill="none" stroke="#FFFFFF" stroke-width="9" stroke-linecap="round" stroke-linejoin="round" stroke-miterlimit="10" enable-background="new    " x1="-1" y1="641.7" x2="98.9" y2="572.6"/>
	
		<line opacity="0.69" fill="none" stroke="#FFFFFF" stroke-width="9" stroke-linecap="round" stroke-linejoin="round" stroke-miterlimit="10" enable-background="new    " x1="96.1" y1="497.6" x2="1.7" y2="497.6"/>
</g>
<g>
	<g>
		<path fill="#FFFFFF" d="M238.2,919.7c-0.1,44.2,38,80.2,84.9,80.2l345.4,0.5c46.9,0.1,85.1-35.7,85.1-80l1.2-838.7
			c0.1-44.2-37.9-80.2-84.9-80.2L324.6,1c-46.9-0.1-85.1,35.7-85.1,80L238.2,919.7z"/>
		
			<rect x="250.2" y="100.3" transform="matrix(1 1.421124e-003 -1.421124e-003 1 0.7012 -0.6909)" fill="#E6F5F5" width="472.7" height="785.6"/>
		<path fill="#F3F3F3" d="M429.1,57.4c0,6.8,4.8,12.3,10.8,12.3l106.8,0.2c6,0,10.8-5.5,10.9-12.2l0,0c0-6.8-4.8-12.3-10.8-12.3
			L440,45.2C434,45.1,429.1,50.6,429.1,57.4L429.1,57.4z"/>
		<path fill="#F3F3F3" d="M528.3,929.8c8.9,31.9-19.5,60.3-51.4,51.4c-13.3-3.7-23.8-14.3-27.5-27.6c-8.9-31.9,19.5-60.3,51.4-51.4
			C514.1,906,524.6,916.5,528.3,929.8z"/>
		<path fill="#F3F3F3" d="M618,59.3c0,6.5,5.4,11.8,12.1,11.9c6.7,0,12.1-5.3,12.1-11.8s-5.4-11.8-12.1-11.8
			C623.4,47.4,618,52.7,618,59.3z"/>
	</g>
	<g>
		<g>
			<path fill="#66499D" d="M624.5,456.6h-8.2v90c0,14-8.2,26.7-24.5,26.7H431.5v4.3c0,12.4,14.1,24.9,28.6,24.9h122.5l46.9,27.6
				l-6.8-27.6h1.8c14.5,0,21-12.5,21-24.9V478C645.5,465.6,639,456.6,624.5,456.6z"/>
			<path fill="#66499D" d="M567.9,394.1H381.7c-16.4,0-35.2,14.5-35.2,28.6v112.8c0,12.9,16,22.2,31.3,23.7l-10,37.8l63.9-37.6
				h136.2c16.4,0,31.5-9.9,31.5-23.9v-91.3v-21.5C599.4,408.6,584.2,394.1,567.9,394.1z M410.1,489.3c-9.3,0-16.8-7.5-16.8-16.8
				s7.5-16.8,16.8-16.8s16.8,7.5,16.8,16.8S419.4,489.3,410.1,489.3z M472.9,489.3c-9.3,0-16.8-7.5-16.8-16.8s7.5-16.8,16.8-16.8
				s16.8,7.5,16.8,16.8S482.2,489.3,472.9,489.3z M535.7,489.3c-9.3,0-16.8-7.5-16.8-16.8s7.5-16.8,16.8-16.8s16.8,7.5,16.8,16.8
				C552.6,481.8,545,489.3,535.7,489.3z"/>
		</g>
	</g>
</g>
</svg>
