<?xml version="1.0" encoding="utf-8"?>
<!-- Generator: Adobe Illustrator 18.0.0, SVG Export Plug-In . SVG Version: 6.00 Build 0)  -->
<!DOCTYPE svg PUBLIC "-//W3C//DTD SVG 1.1//EN" "http://www.w3.org/Graphics/SVG/1.1/DTD/svg11.dtd">
<svg version="1.1" id="Layer_1" xmlns="http://www.w3.org/2000/svg" xmlns:xlink="http://www.w3.org/1999/xlink" x="0px" y="0px"
	 viewBox="0 0 1200 1200" enable-background="new 0 0 1200 1200" xml:space="preserve">
<circle fill="#FFFFFF" cx="600" cy="600" r="301.2"/>
<g>
	<g>
		<path fill="#FFFFFF" d="M195.2,604.9c-1.3-110.5,42.3-221.1,129.6-302c87.3-80.8,200.9-115.8,311-106.1l2.9-2.7
			c-7.7-0.7-15.4-1.3-23.1-1.6c-108.8-4.2-212.8,34.3-292.7,108.3c-79.9,74-126.2,174.7-130.4,283.6c-0.3,7.8-0.4,15.5-0.2,23.2
			L195.2,604.9z"/>
		<path fill="#FFFFFF" d="M949.6,395.5l2.2-2c-14.8-25.1-32.4-48.8-52.6-70.6c-28.8-31.1-61.7-57.1-97.5-77.5l-2.3,2.1
			c35.5,20.1,68.6,45.8,97.7,77.3C917.5,346.8,935,370.6,949.6,395.5z"/>
		<path fill="#FFFFFF" d="M1001.7,549.5c15.5,125-27.2,255.6-126.5,347.6c-163.8,151.8-420.6,141.9-572.3-21.9
			c-29.2-31.5-52.3-66.4-69.6-103.3L231,774c17.6,37.3,41,72,69.8,103.1c74,79.9,174.7,126.2,283.6,130.4
			c108.8,4.2,212.8-34.3,292.7-108.3c79.9-74,126.2-174.7,130.4-283.6c0.9-23.1-0.2-46.1-3.1-68.6L1001.7,549.5z"/>
	</g>
	<g>
		<path fill="#FFFFFF" d="M305.6,438.6c12.4-22.6,27.5-44.1,45.6-64c121.7-134.4,328.3-147.2,465.6-30.9l1.8-2
			c-65.7-55.7-148.8-84-235.3-79.7c-90.3,4.5-173.4,43.8-234.1,110.8c-18.4,20.3-34,42.3-46.7,65.8H305.6z"/>
		<path fill="#FFFFFF" d="M265,580.7h-2.9c-0.7,11.9-0.7,24-0.1,36.1c4.3,86.5,40.6,166.4,102.6,226.3l1.8-2
			C293.9,770.9,259.7,675,265,580.7z"/>
		<path fill="#FFFFFF" d="M897.6,438.6c-3.4-6.3-7-12.4-10.8-18.5l-2,2.2c3.3,5.4,6.5,10.8,9.5,16.3H897.6z"/>
		<path fill="#FFFFFF" d="M937.8,580.7h-2.9c5,86.7-23.3,175.3-86.1,244.7C745.9,938.9,582.4,965.6,451.3,901l-2,2.2
			c51.3,25.6,108.5,37.7,167.4,34.8c90.3-4.5,173.4-43.8,234.1-110.8c60.7-67,91.6-153.6,87.1-243.9
			C937.9,582.4,937.8,581.5,937.8,580.7z"/>
	</g>
	<g>
		<path fill="#FFFFFF" d="M737,936.3c4.9-2.1,9.9-4.3,14.7-6.5l-1.1-2.4c-4.8,2.3-9.7,4.4-14.6,6.5L737,936.3z"/>
		<path fill="#FFFFFF" d="M306.3,816l-2.1,1.6c3.2,4.3,6.5,8.6,9.9,12.7l2.1-1.7C312.7,824.5,309.4,820.3,306.3,816z"/>
		<path fill="#FFFFFF" d="M288.3,789.6l-2.3,1.4c2.8,4.5,5.7,9.1,8.7,13.5l2.2-1.5C294,798.6,291.1,794.1,288.3,789.6z"/>
		<path fill="#FFFFFF" d="M249.5,702.2l-2.6,0.8c1.5,5.1,3.1,10.3,4.9,15.4l2.5-0.9C252.6,712.5,251,707.3,249.5,702.2z"/>
		<path fill="#FFFFFF" d="M348.8,863.6l-1.8,2c3.9,3.7,7.9,7.3,12,10.8l1.7-2C356.6,870.9,352.6,867.3,348.8,863.6z"/>
		<path fill="#FFFFFF" d="M272.8,761.7l-2.4,1.2c2.4,4.8,4.9,9.6,7.5,14.3l2.3-1.3C277.7,771.2,275.2,766.5,272.8,761.7z"/>
		<path fill="#FFFFFF" d="M259.8,732.5l-2.5,1c2,5,4,10,6.2,14.9l2.4-1.1C263.8,742.4,261.8,737.4,259.8,732.5z"/>
		<path fill="#FFFFFF" d="M706.7,947.4c5.1-1.6,10.2-3.4,15.2-5.2l-0.9-2.5c-5,1.8-10.1,3.6-15.1,5.2L706.7,947.4z"/>
		<path fill="#FFFFFF" d="M643.5,958.6l0.3,2.7c5.3-0.7,10.7-1.5,15.9-2.4l-0.5-2.6C654.1,957.1,648.8,958,643.5,958.6z"/>
		<path fill="#FFFFFF" d="M675,953.1l0.6,2.6c5.2-1.2,10.5-2.4,15.6-3.8l-0.7-2.6C685.4,950.7,680.2,951.9,675,953.1z"/>
		<path fill="#FFFFFF" d="M373,884.5l-1.7,2.1c4.2,3.3,8.5,6.6,12.9,9.7l1.6-2.2C381.5,891,377.2,887.8,373,884.5z"/>
		<path fill="#FFFFFF" d="M399,903.1l-1.5,2.2c4.5,2.9,9.1,5.8,13.7,8.5l1.4-2.3C408,908.9,403.5,906,399,903.1z"/>
		<path fill="#FFFFFF" d="M465.5,937.2c-3.4-1.3-6.7-2.7-10-4.1l-1,2.5c3.8,1.6,7.6,3.1,11.5,4.6L465.5,937.2z"/>
		<path fill="#FFFFFF" d="M426.6,919.4l-1.3,2.4c4.7,2.5,9.6,5,14.4,7.3l1.2-2.4C436.1,924.3,431.2,921.9,426.6,919.4z"/>
		<path fill="#FFFFFF" d="M326.5,840.8l-2,1.8c3.6,4,7.3,7.9,11,11.8l1.9-1.9C333.7,848.7,330,844.7,326.5,840.8z"/>
		<path fill="#FFFFFF" d="M317,370.7l-2.1-1.7c-3.4,4.1-6.7,8.4-9.9,12.7l2.1,1.6C310.3,379.1,313.6,374.8,317,370.7z"/>
		<path fill="#FFFFFF" d="M359.9,323.1c-4.1,3.5-8.1,7.1-12,10.7l1.8,2c3.9-3.6,7.9-7.2,11.9-10.6L359.9,323.1z"/>
		<path fill="#FFFFFF" d="M336.4,345.1c-3.7,3.8-7.4,7.8-11,11.7l2,1.8c3.5-4,7.2-7.9,10.9-11.7L336.4,345.1z"/>
		<path fill="#FFFFFF" d="M383,305c-3.6,2.6-7.1,5.2-10.6,8l1.6,2.1c3.1-2.4,6.2-4.7,9.3-7L383,305z"/>
		<path fill="#FFFFFF" d="M533,244.2l-0.5-2.6c-4.7,0.8-9.5,1.8-14.3,2.8l0.3,2.7C523.4,246,528.2,245.1,533,244.2z"/>
		<path fill="#FFFFFF" d="M611.8,961.4l0.3,2.7c5.2-0.2,10.5-0.6,15.7-1l-0.2-2.7C622.4,960.8,617.1,961.2,611.8,961.4z"/>
		<path fill="#FFFFFF" d="M295.6,394.8c-3,4.4-6,9-8.8,13.5l2.3,1.4c2.8-4.5,5.7-9,8.7-13.4L295.6,394.8z"/>
		<path fill="#FFFFFF" d="M278.6,422.2c-2.6,4.7-5.2,9.4-7.6,14.2l2.4,1.2c2.4-4.7,4.9-9.5,7.5-14.1L278.6,422.2z"/>
		<path fill="#FFFFFF" d="M242.9,511.9c-1.3,5.2-2.5,10.5-3.6,15.8l2.6,0.5c1.1-5.2,2.2-10.5,3.5-15.6L242.9,511.9z"/>
		<path fill="#FFFFFF" d="M264.1,451c-2.2,4.9-4.3,9.9-6.3,14.9l2.5,1c2-4.9,4.1-9.9,6.2-14.7L264.1,451z"/>
		<path fill="#FFFFFF" d="M252.1,481c-1.8,5.1-3.4,10.2-5,15.4l2.6,0.8c1.5-5.1,3.2-10.2,4.9-15.2L252.1,481z"/>
		<path fill="#FFFFFF" d="M945.5,704.4c1.5-5.1,3-10.4,4.3-15.6l-2.6-0.7c-1.3,5.1-2.7,10.3-4.3,15.5L945.5,704.4z"/>
		<path fill="#FFFFFF" d="M926.9,453.5l2.5-1.1c-2.2-4.9-4.5-9.8-6.9-14.6l-2.4,1.2C922.5,443.8,924.8,448.6,926.9,453.5z"/>
		<path fill="#FFFFFF" d="M876.9,372.1l2.1-1.7c-3.4-4.1-6.9-8.3-10.4-12.3l-2,1.8C870.1,363.8,873.6,367.9,876.9,372.1z"/>
		<path fill="#FFFFFF" d="M766.1,922.6c4.7-2.5,9.4-5.1,14-7.8l-1.4-2.3c-4.6,2.7-9.3,5.3-13.9,7.7L766.1,922.6z"/>
		<path fill="#FFFFFF" d="M896,397.7l2.2-1.5c-3-4.4-6.1-8.8-9.3-13.1l-2.2,1.6C889.9,388.9,893,393.3,896,397.7z"/>
		<path fill="#FFFFFF" d="M597.5,238.6l0-2.7c-5.3,0-10.8,0.1-16.1,0.3l0.1,2.7C586.8,238.7,592.2,238.6,597.5,238.6z"/>
		<path fill="#FFFFFF" d="M548.8,241.8l0.8-0.1c5.3-0.7,10.6-1.3,15.9-1.7l-0.2-2.7c-5.3,0.5-10.7,1-16,1.7l-0.8,0.1L548.8,241.8z"
			/>
		<path fill="#FFFFFF" d="M629.4,240.1l0.2-2.7c-5.3-0.5-10.7-0.9-16.1-1.1l-0.1,2.7C618.8,239.2,624.1,239.6,629.4,240.1z"/>
		<path fill="#FFFFFF" d="M722.8,261.4l0.9-2.5c-5-1.9-10.2-3.7-15.2-5.3l-0.8,2.5C712.7,257.7,717.8,259.5,722.8,261.4z"/>
		<path fill="#FFFFFF" d="M692.3,251.5l0.7-2.6c-5.2-1.4-10.4-2.7-15.7-3.9l-0.6,2.6C682,248.8,687.2,250.1,692.3,251.5z"/>
		<path fill="#FFFFFF" d="M661.1,244.4l0.5-2.6c-5.3-1-10.6-1.8-15.9-2.5l-0.4,2.7C650.5,242.6,655.9,243.4,661.1,244.4z"/>
		<path fill="#FFFFFF" d="M912.7,424.9l2.3-1.3c-2.6-4.7-5.3-9.3-8.1-13.9l-2.3,1.4C907.4,415.6,910.1,420.2,912.7,424.9z"/>
		<path fill="#FFFFFF" d="M867.1,843.8c3.6-4,7.1-8.1,10.5-12.2l-2.1-1.7c-3.4,4.1-6.9,8.2-10.4,12.1L867.1,843.8z"/>
		<path fill="#FFFFFF" d="M887.6,819c3.2-4.3,6.4-8.7,9.4-13.1l-2.2-1.5c-3,4.4-6.1,8.8-9.3,13L887.6,819z"/>
		<path fill="#FFFFFF" d="M905.8,792.4c2.8-4.5,5.6-9.2,8.2-13.9l-2.3-1.3c-2.6,4.6-5.3,9.3-8.1,13.8L905.8,792.4z"/>
		<path fill="#FFFFFF" d="M793.9,906.3c4.5-2.9,9-5.9,13.3-9l-1.5-2.2c-4.3,3.1-8.8,6.1-13.2,9L793.9,906.3z"/>
		<path fill="#FFFFFF" d="M921.6,764.3c2.4-4.8,4.8-9.7,7-14.5l-2.4-1.1c-2.2,4.8-4.5,9.7-6.9,14.4L921.6,764.3z"/>
		<path fill="#FFFFFF" d="M820.1,887.7c4.2-3.3,8.4-6.7,12.5-10.2l-1.7-2c-4,3.5-8.2,6.8-12.4,10.1L820.1,887.7z"/>
		<path fill="#FFFFFF" d="M844.6,866.8c3.9-3.7,7.8-7.4,11.5-11.2l-1.9-1.9c-3.7,3.8-7.6,7.5-11.4,11.2L844.6,866.8z"/>
		<path fill="#FFFFFF" d="M953.7,545.3l2.6-0.4c-0.8-5.3-1.8-10.6-2.8-15.9l-2.6,0.5C952,534.8,952.9,540.1,953.7,545.3z"/>
		<path fill="#FFFFFF" d="M934.8,734.9c2-5,3.9-10.1,5.6-15.1l-2.5-0.9c-1.7,5-3.6,10.1-5.6,15L934.8,734.9z"/>
		<path fill="#FFFFFF" d="M938.6,483.3l2.5-0.9c-1.7-5.1-3.6-10.2-5.5-15.1l-2.5,1C935,473.2,936.9,478.2,938.6,483.3z"/>
		<path fill="#FFFFFF" d="M947.5,514l2.6-0.6c-1.3-5.2-2.7-10.4-4.2-15.6l-2.6,0.8C944.9,503.6,946.3,508.8,947.5,514z"/>
		<path fill="#FFFFFF" d="M959.9,576.9c-0.3-5.3-0.8-10.7-1.4-16l-2.7,0.3c0.6,5.3,1,10.7,1.4,15.9L959.9,576.9z"/>
		<path fill="#FFFFFF" d="M953.3,673.1c1.1-5.2,2-10.6,2.9-15.9l-2.6-0.4c-0.8,5.2-1.8,10.5-2.8,15.7L953.3,673.1z"/>
		<path fill="#FFFFFF" d="M958.4,641.3c0.6-5.3,1.1-10.7,1.5-16l-2.7-0.2c-0.4,5.3-0.8,10.7-1.4,15.9L958.4,641.3z"/>
		<path fill="#FFFFFF" d="M960.5,609.1c0.1-5.3,0.1-10.8,0-16.1l-2.7,0.1c0.1,5.3,0.1,10.7,0,16L960.5,609.1z"/>
	</g>
</g>
<path fill="#EDBDA9" d="M702.1,793.2c-13.2-22.5-50.2-27.4-30.7-41.7c-0.6,0.4,7.5-6.6,9.4-8.8c0.8-0.9,1.4-1.6,1.9-2.1
	c0.3-0.5,0.6-1.2,1.1-2c0.8-1.4,3.9-9.4,3-6.1c0.8-2.6,1.6-5.2,2.1-7.9c0.2-1.4,0.4-2.3,0.5-2.9c0.1-1.6,0.3-3.1,0.4-4.7
	c0.2-4.2,0.4-8.4,0.5-12.6c0.1-9.2,0-18.5,0-27.7c0-12.2,4-21.8,10.3-28.8c-11.4-7.4-23.8-8.3-28.2-2l-1.6,2.3l-7,9.9l-0.4,0.6
	l-5.2-3.7l6.9-9.8l7-9.9l5.6-8c4.7-6.6-1.1-18.8-12.9-27.1c-11.8-8.3-25.2-9.7-29.9-3.1l-5.6,8l-7,9.9l-6.9,9.8l-5.2-3.7l31.5-44.6
	l0,0c0.3-0.4,0.5-0.7,0.8-1l41.4-58.7c7.6-10.7,4.1-26.2-7.7-34.5c-11.8-8.3-27.5-6.4-35.1,4.3l-41.4,58.7c-0.3,0.4-0.5,0.7-0.7,1.1
	l-0.1,0L508,675.5l-24.1,47.1l-6.8-130.5c3.7-15.4,5.9-30.3-6.8-39.2c-12.7-9-30.3-5.9-39.2,6.8L423.7,669c0,0-12.6,29.8-3.8,76.5
	l20.5,41.3c0.9,237.8,14.7,156.3,0.9,175.5l173.9,19.7c4.9-19.7,1-115.9,1-115.9c7-2.2,26.8-8.2,36.8-13.5
	c4.8-2.5,12.6-7.5,22.1-19.2C692.3,809.7,706.5,800.6,702.1,793.2z"/>
<path fill="#EDBDA9" d="M761.7,444.4c-11.8-8.3-27.5-6.4-35.1,4.3l-41.4,58.7c-0.3,0.4-0.5,0.7-0.7,1.1l-0.1,0l-91.1,129.2l-0.4-0.3
	c0.1,0.5,0.2,1,0.2,1.5c3.1,19.1,4.5,41.3,11.2,59.7c0,0,0,0,0.1,0.1c0.1,0,0.2,0.1,0.3,0.1c0.1-0.8,1.2,0.2,1.8,1
	c0.1,0.1,0.3,0.1,0.4,0.2c0.3,0.1,0.7,0.2,1.1,0.3c2.5,0.8,5.1,1.6,7.6,2.2c0.2,0,0.4,0.1,0.6,0.1c0,0,0,0,0-0.1
	c2.8-3.8,5.6-7.7,8.3-11.6c17-24.2,32.6-49.2,47.5-74.6c7.4-12.6,18.6-19.3,30.4-21c-0.4-3.4-0.4-6.9-0.1-10.3l-1.3,1.9l-5.2-3.7
	l12.9-18.3c1.3-2.3,2.8-4.4,4.5-6.4l14.1-19.9l0,0c0.3-0.4,0.5-0.7,0.8-1l41.4-58.7C776.9,468.2,773.5,452.8,761.7,444.4z"/>
<path fill-rule="evenodd" clip-rule="evenodd" fill="#123544" d="M723.4,795.7c0,7.6-6.3,13.8-14.1,13.8H490.6
	c-7.7,0-14.1-6.2-14.1-13.8V356.5c0-7.6,6.3-13.8,14.1-13.8h218.7c7.7,0,14.1,6.2,14.1,13.8V795.7z"/>
<polygon fill-rule="evenodd" clip-rule="evenodd" fill="#FFFFFF" points="700.9,394.2 695,394.2 683.7,394.2 670.9,394.2
	660.1,394.2 659.4,394.2 645,394.2 608.9,394.2 596.3,394.2 583.5,394.2 571.4,394.2 553.4,394.2 542.2,394.2 506.9,394.2
	505.6,394.2 494.4,394.2 487.9,394.2 487.9,444 487.9,444 487.9,457.4 487.9,457.4 487.9,494.4 487.9,494.4 487.9,539.2
	487.9,539.2 487.9,550.3 487.9,550.3 487.9,661.5 487.9,661.5 487.9,671.5 487.9,671.5 487.9,722.9 487.9,722.9 487.9,736.3
	487.9,736.3 487.9,769.8 488.7,769.8 500.3,769.8 525.9,769.8 540.6,769.8 540.6,769.8 542.2,769.8 551.7,769.8 553.4,769.8
	564.5,769.8 566.1,769.8 575.9,769.8 610.1,769.8 610.7,769.8 622.9,769.8 653.2,769.8 665.6,769.8 668.4,769.8 683.3,769.8
	712.1,769.8 712.1,739.1 712.1,718.6 712.1,713.7 712.1,707.5 712.1,695.4 712.1,690.2 712.1,676.5 712.1,550.3 712.1,539.2
	712.1,510 712.1,494.4 712.1,428.2 712.1,415.8 712.1,394.2 "/>
<g>
	<rect x="377.6" y="907.2" fill="#FFFFFF" width="279.7" height="292.8"/>
	<path fill="#123544" d="M603.8,945.4c7,0.4,13.1-5,13.5-12c0.4-7-5-13.1-12-13.4c-7-0.4-13.1,5-13.5,12
		C591.4,939,596.8,945,603.8,945.4z"/>
	<rect x="360.5" y="959.8" fill="#123544" width="308.6" height="240.2"/>
</g>
<path fill="#EDBDA9" d="M561.6,816.8c0.9-3.5,1.6-7,2.2-10.5c-0.6-1.9,1.3-39.1-42.2-69.6c-20.1-14.1-43.8-10.9-54.7-10v90H561.6z"
	/>
<path fill="#EDBDA9" d="M753.5,689.4c2.8,10.6-3.2,21.3-13.4,24l-46.8,12.4c-10.2,2.7-20.7-3.7-23.5-14.2l0,0
	c-2.8-10.6,3.2-21.3,13.4-24l46.8-12.4C740.1,672.4,750.7,678.8,753.5,689.4L753.5,689.4z"/>
<path fill="#EDBDA9" d="M752.5,643c2.7,11-3.4,21.9-13.6,24.5l-47,11.6c-10.2,2.5-20.7-4.3-23.4-15.3l0,0
	c-2.7-11,3.4-21.9,13.6-24.5l47-11.6C739.3,625.2,749.8,632.1,752.5,643L752.5,643z"/>
<path fill="#EDBDA9" d="M748.4,581.3c5.6,12,1.6,25.7-9.1,30.7l-49,23.1c-10.7,5-23.9-0.6-29.5-12.6l0,0c-5.6-12-1.6-25.7,9.1-30.7
	l49-23.1C729.6,563.7,742.8,569.3,748.4,581.3L748.4,581.3z"/>
<g>
	<path fill="#FFD11D" d="M920.4,561.7c0,9.2-7.5,16.7-16.7,16.7H543.7c-9.2,0-16.7-7.5-16.7-16.7V387.2c0-9.2,7.5-16.7,16.7-16.7
		h360.1c9.2,0,16.7,7.5,16.7,16.7V561.7z"/>
	<g>
		<g>
			<path fill="#123544" d="M619,490.4c-18.5,0-33.5-14-33.5-31.3V434c0-17.2,15-26.2,33.5-26.2c18.5,0,33.5,8.9,33.5,26.2v25.1
				C652.6,476.4,637.5,490.4,619,490.4z M619,418.1c-13.3,0-24.1,5.3-24.1,17.5v22.5c0,12.2,10.8,22.1,24.1,22.1
				c13.3,0,24.1-9.9,24.1-22.1v-22.5C643.2,423.4,632.3,418.1,619,418.1z"/>
		</g>
		<g>
			<path fill="#F44336" d="M662.8,455.2h-89c-0.3,0-0.7,0-1,0v64.2h90V455.2z"/>
			<rect x="572.9" y="519.5" fill="#123544" width="90" height="4.2"/>
		</g>
		<g>
			<g>
				<g>
					<g>
						<rect x="614.4" y="470.6" fill="#FFFFFF" width="6.8" height="6.5"/>
						<rect x="600.7" y="470.6" fill="#FFFFFF" width="6.9" height="6.5"/>
						<rect x="628.1" y="470.6" fill="#FFFFFF" width="6.8" height="6.5"/>
					</g>
				</g>
			</g>
			<g>
				<g>
					<g>
						<rect x="614.4" y="483.5" fill="#FFFFFF" width="6.8" height="6.5"/>
						<rect x="600.7" y="483.5" fill="#FFFFFF" width="6.9" height="6.5"/>
						<rect x="628.1" y="483.5" fill="#FFFFFF" width="6.8" height="6.5"/>
					</g>
				</g>
			</g>
			<g>
				<g>
					<g>
						<rect x="614.4" y="496.4" fill="#FFFFFF" width="6.8" height="6.5"/>
						<rect x="600.7" y="496.4" fill="#FFFFFF" width="6.9" height="6.5"/>
						<rect x="628.1" y="496.4" fill="#FFFFFF" width="6.8" height="6.5"/>
					</g>
				</g>
			</g>
		</g>
	</g>
	<polygon fill="#FFD11D" points="563.9,623.6 563.9,571.7 620.3,571.7 	"/>
	<polygon fill="#FFFFFF" points="874.4,523.6 874.4,523.6 694.2,523.6 694.2,523.6 694.2,474.8 694.2,474.8 874.4,474.8
		874.4,474.8 	"/>
	<polygon fill="#FFFFFF" points="874.4,463.9 874.4,463.9 694.2,463.9 694.2,463.9 694.2,415.1 694.2,415.1 874.4,415.1
		874.4,415.1 	"/>
</g>
<path opacity="0.3" fill="#FFFFFF" d="M681.8,594.4c0,0,5.5,7.3,9.3,14.7c3.2,6.3,4.8,12.8,4.8,12.8l-15.2,7.8
	c0,0-6.5-2.9-10.9-12.2c-4.2-8.9-3.1-15.3-3.1-15.3L681.8,594.4z"/>
<path opacity="0.3" fill="#FFFFFF" d="M446.3,566.5c0,0-5.2-5.8-15-6.2c-0.1,0-0.2,0-0.2,0c-0.3,5.9-1.8,27.1-2.2,34.1
	c0.1,0,0.2,0,0.3,0c8.3,0,17.3-2.4,17.3-2.4L446.3,566.5z"/>
<path opacity="0.3" fill="#FFFFFF" d="M694.4,642.3c0,0,3.9,7.7,6.1,15.2c1.9,6.4,2,12.8,2,12.8l-17.1,5c0,0-5.9-3.8-8.3-13.2
	c-2.3-9,0.2-14.8,0.2-14.8L694.4,642.3z"/>
<path opacity="0.3" fill="#FFFFFF" d="M692.2,691.1c0,0,3.6,7.2,5.7,14.3c1.7,6,2,12,2,12l-15.1,4.4c0,0-5.3-3.6-7.6-12.4
	c-2.2-8.5,0-13.8,0-13.8L692.2,691.1z"/>
<g>
	<path fill="#123544" d="M733.9,431.9v8c0,3,1.3,4.3,3.1,4.3c2,0,3.3-1.3,3.3-4.3v-8h1.8v7.9c0,4.1-2.2,5.8-5.1,5.8
		c-2.8,0-4.8-1.6-4.8-5.8v-7.9H733.9z"/>
	<path fill="#123544" d="M744.7,443.6c0.5,0.3,1.4,0.7,2.3,0.7c1.3,0,1.9-0.6,1.9-1.4c0-0.8-0.5-1.3-1.8-1.8
		c-1.7-0.6-2.6-1.6-2.6-2.7c0-1.6,1.3-2.8,3.3-2.8c1,0,1.8,0.3,2.4,0.6l-0.4,1.3c-0.4-0.2-1.1-0.6-2-0.6c-1,0-1.6,0.6-1.6,1.3
		c0,0.8,0.6,1.2,1.8,1.6c1.7,0.6,2.5,1.5,2.5,2.9c0,1.7-1.3,2.9-3.6,2.9c-1.1,0-2-0.3-2.7-0.7L744.7,443.6z"/>
	<path fill="#123544" d="M753.8,440.9c0,2.4,1.6,3.4,3.3,3.4c1.3,0,2-0.2,2.7-0.5l0.3,1.3c-0.6,0.3-1.7,0.6-3.2,0.6
		c-3,0-4.8-2-4.8-4.9c0-2.9,1.7-5.2,4.5-5.2c3.2,0,4,2.8,4,4.6c0,0.4,0,0.6-0.1,0.8H753.8z M759,439.6c0-1.1-0.5-2.9-2.4-2.9
		c-1.8,0-2.6,1.6-2.7,2.9H759z"/>
	<path fill="#123544" d="M762.9,438.7c0-1.1,0-2.1-0.1-3h1.5l0.1,1.9h0.1c0.4-1.3,1.5-2.1,2.7-2.1c0.2,0,0.3,0,0.5,0.1v1.7
		c-0.2,0-0.4-0.1-0.6-0.1c-1.2,0-2.1,0.9-2.4,2.3c0,0.2-0.1,0.5-0.1,0.8v5.2h-1.7V438.7z"/>
	<path fill="#123544" d="M773.7,445.4v-13.5h1.9l4.3,6.8c1,1.6,1.8,3,2.4,4.4l0,0c-0.2-1.8-0.2-3.4-0.2-5.5v-5.6h1.6v13.5h-1.8
		l-4.3-6.8c-0.9-1.5-1.8-3-2.5-4.5l-0.1,0c0.1,1.7,0.1,3.3,0.1,5.6v5.8H773.7z"/>
	<path fill="#123544" d="M792.2,445.4l-0.1-1.2H792c-0.5,0.8-1.6,1.4-3,1.4c-2,0-3-1.4-3-2.8c0-2.3,2.1-3.6,5.8-3.6V439
		c0-0.8-0.2-2.2-2.2-2.2c-0.9,0-1.8,0.3-2.5,0.7l-0.4-1.2c0.8-0.5,2-0.9,3.2-0.9c3,0,3.7,2,3.7,4v3.6c0,0.8,0,1.7,0.2,2.3H792.2z
		 M791.9,440.4c-1.9,0-4.1,0.3-4.1,2.2c0,1.1,0.8,1.7,1.7,1.7c1.3,0,2.1-0.8,2.3-1.6c0.1-0.2,0.1-0.4,0.1-0.6V440.4z"/>
	<path fill="#123544" d="M796.4,438.3c0-1,0-1.8-0.1-2.6h1.5l0.1,1.6h0.1c0.5-0.9,1.4-1.8,3-1.8c1.3,0,2.3,0.8,2.7,1.9h0
		c0.3-0.5,0.7-1,1.1-1.3c0.6-0.4,1.2-0.7,2.1-0.7c1.3,0,3.2,0.8,3.2,4.2v5.7h-1.7v-5.5c0-1.9-0.7-3-2.1-3c-1,0-1.8,0.7-2.1,1.6
		c-0.1,0.2-0.1,0.6-0.1,0.9v6h-1.7v-5.8c0-1.5-0.7-2.7-2-2.7c-1.1,0-1.9,0.9-2.2,1.8c-0.1,0.3-0.1,0.6-0.1,0.9v5.8h-1.7V438.3z"/>
	<path fill="#123544" d="M814.1,440.9c0,2.4,1.6,3.4,3.3,3.4c1.3,0,2-0.2,2.7-0.5l0.3,1.3c-0.6,0.3-1.7,0.6-3.2,0.6
		c-3,0-4.8-2-4.8-4.9c0-2.9,1.7-5.2,4.5-5.2c3.2,0,4,2.8,4,4.6c0,0.4,0,0.6-0.1,0.8H814.1z M819.3,439.6c0-1.1-0.5-2.9-2.4-2.9
		c-1.8,0-2.6,1.6-2.7,2.9H819.3z"/>
	<path fill="#123544" d="M822.5,444.3c0-0.7,0.5-1.3,1.2-1.3s1.2,0.5,1.2,1.3c0,0.7-0.5,1.3-1.2,1.3
		C823,445.6,822.5,445.1,822.5,444.3z"/>
	<path fill="#123544" d="M826.6,444.3c0-0.7,0.5-1.3,1.2-1.3s1.2,0.5,1.2,1.3c0,0.7-0.5,1.3-1.2,1.3
		C827.1,445.6,826.6,445.1,826.6,444.3z"/>
	<path fill="#123544" d="M830.8,444.3c0-0.7,0.5-1.3,1.2-1.3s1.2,0.5,1.2,1.3c0,0.7-0.5,1.3-1.2,1.3
		C831.2,445.6,830.8,445.1,830.8,444.3z"/>
	<path fill="#123544" d="M834.9,444.3c0-0.7,0.5-1.3,1.2-1.3s1.2,0.5,1.2,1.3c0,0.7-0.5,1.3-1.2,1.3
		C835.4,445.6,834.9,445.1,834.9,444.3z"/>
</g>
<g>
	<path fill="#123544" d="M767.9,504.1l-0.1-0.9c-0.2-1.9,0.4-4,2.2-6.1c1.6-1.9,2.5-3.2,2.5-4.8c0-1.8-1.1-3-3.3-3
		c-1.3,0-2.7,0.4-3.5,1.1l-0.8-2.2c1.2-0.8,3.2-1.4,5-1.4c4,0,5.8,2.5,5.8,5.1c0,2.4-1.3,4.1-3,6.1c-1.5,1.8-2.1,3.4-2,5.1l0,0.9
		H767.9z M767.2,509c0-1.3,0.9-2.2,2.1-2.2c1.2,0,2.1,0.9,2.1,2.2c0,1.2-0.8,2.2-2.1,2.2C768,511.2,767.2,510.3,767.2,509z"/>
	<path fill="#123544" d="M782.2,504.1l-0.1-0.9c-0.2-1.9,0.4-4,2.2-6.1c1.6-1.9,2.5-3.2,2.5-4.8c0-1.8-1.1-3-3.3-3
		c-1.3,0-2.7,0.4-3.5,1.1l-0.8-2.2c1.2-0.8,3.2-1.4,5-1.4c4,0,5.8,2.5,5.8,5.1c0,2.4-1.3,4.1-3,6.1c-1.5,1.8-2.1,3.4-2,5.1l0,0.9
		H782.2z M781.4,509c0-1.3,0.9-2.2,2.1-2.2s2.1,0.9,2.1,2.2c0,1.2-0.8,2.2-2.1,2.2C782.2,511.2,781.4,510.3,781.4,509z"/>
	<path fill="#123544" d="M796.4,504.1l-0.1-0.9c-0.2-1.9,0.4-4,2.2-6.1c1.6-1.9,2.5-3.2,2.5-4.8c0-1.8-1.1-3-3.3-3
		c-1.3,0-2.7,0.4-3.5,1.1l-0.8-2.2c1.2-0.8,3.2-1.4,5-1.4c4,0,5.8,2.5,5.8,5.1c0,2.4-1.3,4.1-3,6.1c-1.5,1.8-2.1,3.4-2,5.1l0,0.9
		H796.4z M795.6,509c0-1.3,0.9-2.2,2.1-2.2s2.1,0.9,2.1,2.2c0,1.2-0.8,2.2-2.1,2.2C796.4,511.2,795.6,510.3,795.6,509z"/>
</g>
</svg>
