<?xml version="1.0" encoding="utf-8"?>
<!-- Generator: Adobe Illustrator 16.0.0, SVG Export Plug-In . SVG Version: 6.00 Build 0)  -->
<!DOCTYPE svg PUBLIC "-//W3C//DTD SVG 1.1//EN" "http://www.w3.org/Graphics/SVG/1.1/DTD/svg11.dtd">
<svg version="1.1" id="Layer_1" xmlns="http://www.w3.org/2000/svg" xmlns:xlink="http://www.w3.org/1999/xlink" x="0px" y="0px"
	 width="311px" height="211.431px" viewBox="0 0 311 211.431" enable-background="new 0 0 311 211.431" xml:space="preserve">
<g>
	<g>
		<g>
			<path fill="#FFFFFF" d="M155.081,134.511c-17.964,0-34.854-6.994-47.557-19.698C94.821,102.109,87.826,85.22,87.826,67.255
				s6.996-34.854,19.699-47.557C120.228,6.995,137.117,0,155.081,0c17.965,0,34.854,6.995,47.558,19.699
				c12.703,12.703,19.699,29.592,19.699,47.557c0,17.964-6.996,34.854-19.699,47.557
				C189.936,127.517,173.046,134.511,155.081,134.511z M155.081,3.495c-35.158,0-63.761,28.604-63.761,63.761
				c0,35.158,28.603,63.762,63.761,63.762c35.158,0,63.763-28.604,63.763-63.762C218.844,32.098,190.239,3.495,155.081,3.495z"/>
		</g>
	</g>
	<g>
		<g>
			<path fill="#FFFFFF" d="M194.567,103.89h-43.853c-0.693,0-17.047-0.166-24.596-14.618c-7.457-14.275-7.672-24.54-7.672-25.663
				h4.032c0,1.022,0.202,10.373,7.213,23.796c2.667,5.106,6.978,8.75,12.811,10.83c4.458,1.59,8.178,1.623,8.215,1.623h34.114
				l-69.237-69.236h47.364c7.994,0,14.505,2.624,19.352,7.799c10.487,11.198,9.363,30.277,9.311,31.083l-4.023-0.264
				c0.017-0.258,1.03-18.188-8.24-28.074c-4.053-4.321-9.569-6.512-16.398-6.512h-37.629L194.567,103.89z M189.61,69.372
				l-2.012-0.131c0,0,0,0,0-0.001L189.61,69.372z"/>
		</g>
	</g>
</g>
<g>
	<path fill="#FFFFFF" stroke="#FFFFFF" stroke-width="2" stroke-miterlimit="10" d="M2.518,173.517v-4.62
		c0-4.713,1.178-7.968,3.535-9.765c2.356-1.796,5.751-2.695,10.185-2.695c4.433,0,9.8,0.49,16.1,1.47v2.03l-16.17-0.63
		c-0.327,0-0.654,0-0.98,0c-3.08,0-5.484,0.654-7.21,1.96c-1.727,1.307-2.59,3.85-2.59,7.63v4.62c0,3.268,0.746,5.414,2.24,6.44
		c1.493,1.026,3.826,1.54,7,1.54h8.61c4.246,0,7.175,0.979,8.785,2.939s2.415,4.62,2.415,7.98v4.76c0,4.714-1.447,7.887-4.34,9.52
		c-2.427,1.308-5.554,1.96-9.38,1.96c-1.82,0-4.69-0.14-8.61-0.42c-3.92-0.279-6.65-0.56-8.19-0.84v-2.17
		c4.013,0.374,8.178,0.561,12.495,0.561c4.316,0,7.046-0.105,8.19-0.315c1.143-0.21,2.275-0.595,3.395-1.155
		c2.38-1.213,3.57-3.593,3.57-7.14v-4.76c0-2.706-0.642-4.713-1.925-6.021c-1.284-1.306-3.419-1.96-6.405-1.96h-8.47
		c-5.227,0-8.657-1.143-10.29-3.43c-0.794-1.12-1.319-2.24-1.575-3.36C2.646,176.526,2.518,175.15,2.518,173.517z"/>
	<path fill="#FFFFFF" stroke="#FFFFFF" stroke-width="2" stroke-miterlimit="10" d="M57.048,208.446
		c-6.02,0-10.115-1.364-12.285-4.095c-2.17-2.729-3.255-7.665-3.255-14.805c0-7.141,1.143-12.086,3.43-14.84
		c2.286-2.753,6.381-4.13,12.285-4.13c5.903,0,9.986,1.481,12.25,4.444c2.263,2.964,3.395,7.922,3.395,14.875
		c0,6.954-1.132,11.784-3.395,14.49C67.209,207.094,63.068,208.446,57.048,208.446z M47.738,176.002
		c-1.214,1.097-2.077,2.776-2.59,5.04c-0.514,2.264-0.77,5.18-0.77,8.75c0,3.569,0.256,6.417,0.77,8.54
		c0.513,2.124,1.365,3.698,2.555,4.725c1.19,1.027,2.473,1.704,3.85,2.03c1.376,0.327,3.231,0.49,5.565,0.49
		c2.333,0,4.211-0.176,5.635-0.525c1.423-0.35,2.741-1.061,3.955-2.135c2.193-2.006,3.29-6.301,3.29-12.88
		c0-7.094-1.097-11.69-3.29-13.79c-1.214-1.12-2.532-1.866-3.955-2.24c-1.424-0.373-3.302-0.561-5.635-0.561
		c-2.334,0-4.177,0.152-5.53,0.455C50.234,174.206,48.951,174.905,47.738,176.002z"/>
	<path fill="#FFFFFF" stroke="#FFFFFF" stroke-width="2" stroke-miterlimit="10" d="M80.252,199.276
		c-0.584-2.612-0.875-5.88-0.875-9.8s0.28-7.175,0.84-9.765s1.423-4.526,2.59-5.811c1.166-1.282,2.426-2.157,3.78-2.625
		c1.353-0.466,3.535-0.699,6.545-0.699c3.01,0,7.338,0.606,12.985,1.819v1.96c-5.554-0.605-9.765-0.91-12.635-0.91
		c-2.87,0-4.807,0.176-5.81,0.525c-1.004,0.35-1.949,1.085-2.835,2.205c-1.727,2.1-2.59,6.627-2.59,13.58
		c0,4.247,0.408,7.56,1.225,9.939c0.816,2.381,1.855,3.955,3.115,4.726c1.26,0.77,2.87,1.155,4.83,1.155
		c3.92,0,8.213-0.326,12.88-0.98l2.38-0.28v2.101c-4.527,1.307-9.567,1.982-15.12,2.029c-1.914,0-3.535-0.233-4.865-0.699
		c-1.33-0.467-2.59-1.342-3.78-2.625S80.835,201.891,80.252,199.276z"/>
	<path fill="#FFFFFF" stroke="#FFFFFF" stroke-width="2" stroke-miterlimit="10" d="M114.377,164.696v-4.199
		c0-0.746,0.373-1.12,1.12-1.12h1.68c0.7,0,1.05,0.374,1.05,1.12v4.199c0,0.7-0.35,1.051-1.05,1.051h-1.68
		C114.75,165.747,114.377,165.396,114.377,164.696z M114.797,208.097v-37.17h2.87v37.17H114.797z"/>
	<path fill="#FFFFFF" stroke="#FFFFFF" stroke-width="2" stroke-miterlimit="10" d="M127.187,172.396
		c5.553-1.445,11.2-2.17,16.94-2.17c3.033,0,5.541,0.887,7.525,2.66c1.983,1.774,2.975,4.479,2.975,8.12v27.09h-1.96l-0.91-4.48
		l-1.05,0.49c-4.48,2.007-7.852,3.244-10.115,3.71c-2.264,0.466-4.025,0.7-5.285,0.7c-2.66,0-4.877-0.815-6.65-2.45
		c-1.774-1.633-2.66-3.896-2.66-6.79v-4.27c0-2.894,0.828-5.168,2.485-6.825c1.656-1.656,3.931-2.485,6.825-2.485
		c5.506,0,10.99,0,16.45,0c0.046-1.54,0.07-2.694,0.07-3.465c0-0.77-0.024-1.178-0.07-1.225c0-5.32-2.637-8.003-7.91-8.05
		c-0.187,0-0.374,0-0.56,0c-3.78,0-9.147,0.443-16.1,1.33V172.396z M128.867,198.927c0,2.334,0.63,4.025,1.89,5.075
		c1.26,1.05,2.753,1.587,4.48,1.609c1.726,0.024,3.955-0.291,6.685-0.944s5.051-1.33,6.965-2.03l2.87-0.98v-13.93l-16.45,0.84
		c-4.294,0.188-6.44,2.38-6.44,6.58V198.927z"/>
	<path fill="#FFFFFF" stroke="#FFFFFF" stroke-width="2" stroke-miterlimit="10" d="M164.076,194.866v-41.579h2.87v41.579
		c0,4.435,0.677,7.305,2.03,8.61c0.652,0.607,1.225,1.015,1.715,1.226c0.49,0.21,1.762,0.514,3.814,0.909
		c2.054,0.397,3.244,0.596,3.57,0.596v1.89h-5.18c-2.939,0-5.145-1.05-6.615-3.15C164.812,202.847,164.076,199.486,164.076,194.866z
		"/>
	<path fill="#FFFFFF" stroke="#FFFFFF" stroke-width="2" stroke-miterlimit="10" d="M200.967,208.097v-51.24h20.16
		c4.434,0,7.63,1.354,9.59,4.061c1.727,2.474,2.59,5.949,2.59,10.43c0,6.907-1.68,11.317-5.039,13.23
		c-1.494,0.84-3.268,1.307-5.32,1.399l11.06,22.12h-3.01l-11.2-22.05c-10.313-0.28-15.634-0.536-15.96-0.771v22.82H200.967z
		 M203.837,183.037h17.29c1.4,0,2.566-0.116,3.5-0.351c0.934-0.232,1.866-0.723,2.8-1.47c1.96-1.493,2.94-4.666,2.94-9.521
		c0-4.853-0.84-8.05-2.521-9.59c-1.68-1.54-3.92-2.31-6.72-2.31h-17.29V183.037z"/>
	<path fill="#FFFFFF" stroke="#FFFFFF" stroke-width="2" stroke-miterlimit="10" d="M240.726,196.757v-25.9h2.87v25.9
		c0,2.66,0.781,4.83,2.345,6.51s3.698,2.521,6.405,2.521c2.706,0,5.075-0.315,7.105-0.945c2.029-0.63,4.49-1.691,7.385-3.186v-30.8
		h2.87v37.17h-1.891l-0.979-4.34c-5.274,3.314-10.15,4.97-14.63,4.97c-3.547,0-6.348-1.165-8.4-3.5
		C241.752,202.823,240.726,200.023,240.726,196.757z"/>
	<path fill="#FFFFFF" stroke="#FFFFFF" stroke-width="2" stroke-miterlimit="10" d="M279.996,208.097v-37.17h1.891l0.979,4.34
		c5.273-3.313,10.15-4.97,14.63-4.97c3.546,0,6.347,1.167,8.4,3.5c2.053,2.334,3.08,5.134,3.08,8.399v25.9h-2.87v-25.9
		c0-2.659-0.782-4.83-2.345-6.51c-1.564-1.68-3.688-2.52-6.37-2.52c-2.685,0-5.04,0.314-7.07,0.944s-4.515,1.716-7.455,3.255v30.73
		H279.996z"/>
</g>
</svg>
