<?xml version="1.0" encoding="utf-8"?>
<!-- Generator: Adobe Illustrator 18.1.1, SVG Export Plug-In . SVG Version: 6.00 Build 0)  -->
<svg version="1.1" id="Layer_1" xmlns="http://www.w3.org/2000/svg" xmlns:xlink="http://www.w3.org/1999/xlink" x="0px" y="0px"
	 viewBox="0 0 1000 1000" enable-background="new 0 0 1000 1000" xml:space="preserve">
<circle fill="#FFFFFF" cx="500" cy="500" r="251"/>
<g>
	<g>
		<path fill="#FFFFFF" d="M162.7,504.1c-1.1-92.1,35.3-184.3,108-251.7c72.7-67.3,167.4-96.5,259.2-88.4l2.4-2.3
			c-6.4-0.6-12.8-1.1-19.3-1.3c-90.7-3.5-177.3,28.6-243.9,90.3S163.9,396.3,160.4,487c-0.3,6.5-0.3,12.9-0.2,19.3L162.7,504.1z"/>
		<path fill="#FFFFFF" d="M791.3,329.6l1.8-1.7c-12.3-20.9-27-40.7-43.8-58.8c-24-25.9-51.4-47.6-81.3-64.6l-1.9,1.8
			c29.6,16.8,57.2,38.2,81.4,64.4C764.6,289,779.2,308.8,791.3,329.6z"/>
		<path fill="#FFFFFF" d="M834.8,457.9c12.9,104.2-22.7,213-105.4,289.7c-136.5,126.5-350.5,118.3-476.9-18.3
			c-24.3-26.3-43.6-55.3-58-86.1l-1.9,1.8c14.7,31.1,34.2,60,58.2,85.9c61.7,66.6,145.6,105.2,236.3,108.7
			c90.7,3.5,177.3-28.6,243.9-90.3S836.1,603.8,839.6,513c0.8-19.2-0.2-38.4-2.6-57.2L834.8,457.9z"/>
	</g>
	<g>
		<path fill="#FFFFFF" d="M254.7,365.5c10.3-18.8,22.9-36.8,38-53.3c101.4-112,273.6-122.7,388-25.8l1.5-1.7
			c-54.8-46.4-124-70-196.1-66.4c-75.3,3.8-144.5,36.5-195.1,92.3c-15.3,16.9-28.3,35.2-38.9,54.8L254.7,365.5L254.7,365.5z"/>
		<path fill="#FFFFFF" d="M220.8,483.9h-2.4c-0.6,9.9-0.6,20-0.1,30.1c3.6,72.1,33.8,138.7,85.5,188.6l1.5-1.7
			C244.9,642.4,216.4,562.5,220.8,483.9z"/>
		<path fill="#FFFFFF" d="M748,365.5c-2.8-5.3-5.8-10.3-9-15.4l-1.7,1.8c2.8,4.5,5.4,9,7.9,13.6H748z"/>
		<path fill="#FFFFFF" d="M781.5,483.9h-2.4c4.2,72.3-19.4,146.1-71.8,203.9c-85.8,94.6-222,116.8-331.3,63l-1.7,1.8
			c42.7,21.3,90.4,31.4,139.5,29c75.3-3.8,144.5-36.5,195.1-92.3c50.6-55.8,76.3-128,72.6-203.2
			C781.6,485.3,781.5,484.6,781.5,483.9z"/>
	</g>
	<g>
		<path fill="#FFFFFF" d="M614.2,780.3c4.1-1.8,8.3-3.6,12.3-5.4l-0.9-2c-4,1.9-8.1,3.7-12.2,5.4L614.2,780.3z"/>
		<path fill="#FFFFFF" d="M255.2,680l-1.8,1.3c2.7,3.6,5.4,7.2,8.2,10.6l1.8-1.4C260.6,687.1,257.8,683.6,255.2,680z"/>
		<path fill="#FFFFFF" d="M240.2,658l-1.9,1.2c2.3,3.8,4.8,7.6,7.3,11.3l1.8-1.3C245,665.5,242.6,661.7,240.2,658z"/>
		<path fill="#FFFFFF" d="M207.9,585.2l-2.2,0.7c1.3,4.3,2.6,8.6,4.1,12.8l2.1-0.8C210.5,593.8,209.2,589.4,207.9,585.2z"/>
		<path fill="#FFFFFF" d="M290.7,719.7l-1.5,1.7c3.3,3.1,6.6,6.1,10,9l1.4-1.7C297.2,725.8,293.8,722.8,290.7,719.7z"/>
		<path fill="#FFFFFF" d="M227.3,634.8l-2,1c2,4,4.1,8,6.3,11.9l1.9-1.1C231.4,642.7,229.3,638.8,227.3,634.8z"/>
		<path fill="#FFFFFF" d="M216.5,610.4l-2.1,0.8c1.7,4.2,3.3,8.3,5.2,12.4l2-0.9C219.8,618.7,218.2,614.5,216.5,610.4z"/>
		<path fill="#FFFFFF" d="M588.9,789.5c4.2-1.3,8.5-2.8,12.7-4.3l-0.8-2.1c-4.2,1.5-8.4,3-12.6,4.3L588.9,789.5z"/>
		<path fill="#FFFFFF" d="M536.3,798.8l0.3,2.3c4.4-0.6,8.9-1.3,13.3-2l-0.4-2.2C545.1,797.6,540.7,798.3,536.3,798.8z"/>
		<path fill="#FFFFFF" d="M562.5,794.2l0.5,2.2c4.3-1,8.8-2,13-3.2l-0.6-2.2C571.2,792.3,566.8,793.3,562.5,794.2z"/>
		<path fill="#FFFFFF" d="M310.8,737.1l-1.4,1.8c3.5,2.8,7.1,5.5,10.8,8.1l1.3-1.8C317.9,742.5,314.3,739.8,310.8,737.1z"/>
		<path fill="#FFFFFF" d="M332.5,752.6l-1.3,1.8c3.8,2.4,7.6,4.8,11.4,7.1l1.2-1.9C340,757.4,336.3,755,332.5,752.6z"/>
		<path fill="#FFFFFF" d="M387.9,781c-2.8-1.1-5.6-2.3-8.3-3.4l-0.8,2.1c3.2,1.3,6.3,2.6,9.6,3.8L387.9,781z"/>
		<path fill="#FFFFFF" d="M355.5,766.2l-1.1,2c3.9,2.1,8,4.2,12,6.1l1-2C363.4,770.3,359.3,768.3,355.5,766.2z"/>
		<path fill="#FFFFFF" d="M272.1,700.7l-1.7,1.5c3,3.3,6.1,6.6,9.2,9.8l1.6-1.6C278.1,707.3,275,703.9,272.1,700.7z"/>
		<path fill="#FFFFFF" d="M264.2,308.9l-1.8-1.4c-2.8,3.4-5.6,7-8.3,10.6l1.8,1.3C258.6,315.9,261.3,312.3,264.2,308.9z"/>
		<path fill="#FFFFFF" d="M299.9,269.3c-3.4,2.9-6.8,5.9-10,8.9l1.5,1.7c3.2-3,6.6-6,9.9-8.8L299.9,269.3z"/>
		<path fill="#FFFFFF" d="M280.3,287.6c-3.1,3.2-6.2,6.5-9.2,9.8l1.7,1.5c2.9-3.3,6-6.6,9.1-9.8L280.3,287.6z"/>
		<path fill="#FFFFFF" d="M319.2,254.2c-3,2.2-5.9,4.3-8.8,6.7l1.3,1.8c2.6-2,5.2-3.9,7.8-5.8L319.2,254.2z"/>
		<path fill="#FFFFFF" d="M444.2,203.5l-0.4-2.2c-3.9,0.7-7.9,1.5-11.9,2.3l0.2,2.3C436.2,205,440.2,204.3,444.2,203.5z"/>
		<path fill="#FFFFFF" d="M509.8,801.2l0.3,2.3c4.3-0.2,8.8-0.5,13.1-0.8l-0.2-2.3C518.7,800.7,514.2,801,509.8,801.2z"/>
		<path fill="#FFFFFF" d="M246.3,329c-2.5,3.7-5,7.5-7.3,11.3l1.9,1.2c2.3-3.8,4.8-7.5,7.3-11.2L246.3,329z"/>
		<path fill="#FFFFFF" d="M232.2,351.8c-2.2,3.9-4.3,7.8-6.3,11.8l2,1c2-3.9,4.1-7.9,6.3-11.8L232.2,351.8z"/>
		<path fill="#FFFFFF" d="M202.4,426.6c-1.1,4.3-2.1,8.8-3,13.2l2.2,0.4c0.9-4.3,1.8-8.8,2.9-13L202.4,426.6z"/>
		<path fill="#FFFFFF" d="M220.1,375.8c-1.8,4.1-3.6,8.3-5.2,12.4l2.1,0.8c1.7-4.1,3.4-8.3,5.2-12.3L220.1,375.8z"/>
		<path fill="#FFFFFF" d="M210.1,400.8c-1.5,4.3-2.8,8.5-4.2,12.8l2.2,0.7c1.3-4.3,2.7-8.5,4.1-12.7L210.1,400.8z"/>
		<path fill="#FFFFFF" d="M787.9,587c1.3-4.3,2.5-8.7,3.6-13l-2.2-0.6c-1.1,4.3-2.3,8.6-3.6,12.9L787.9,587z"/>
		<path fill="#FFFFFF" d="M772.4,377.9l2.1-0.9c-1.8-4.1-3.8-8.2-5.8-12.2l-2,1C768.8,369.8,770.7,373.8,772.4,377.9z"/>
		<path fill="#FFFFFF" d="M730.8,310.1l1.8-1.4c-2.8-3.4-5.8-6.9-8.7-10.3l-1.7,1.5C725.1,303.2,728,306.6,730.8,310.1z"/>
		<path fill="#FFFFFF" d="M638.4,768.8c3.9-2.1,7.8-4.3,11.7-6.5l-1.2-1.9c-3.8,2.3-7.8,4.4-11.6,6.4L638.4,768.8z"/>
		<path fill="#FFFFFF" d="M746.7,331.4l1.8-1.3c-2.5-3.7-5.1-7.3-7.8-10.9l-1.8,1.3C741.6,324.1,744.2,327.7,746.7,331.4z"/>
		<path fill="#FFFFFF" d="M497.9,198.8v-2.2c-4.4,0-9,0.1-13.4,0.3l0.1,2.3C489,198.9,493.5,198.8,497.9,198.8z"/>
		<path fill="#FFFFFF" d="M457.3,201.5l0.7-0.1c4.4-0.6,8.8-1.1,13.3-1.4l-0.2-2.3c-4.4,0.4-8.9,0.8-13.3,1.4l-0.7,0.1L457.3,201.5z
			"/>
		<path fill="#FFFFFF" d="M524.5,200.1l0.2-2.2c-4.4-0.4-8.9-0.8-13.4-0.9l-0.1,2.2C515.7,199.3,520.1,199.7,524.5,200.1z"/>
		<path fill="#FFFFFF" d="M602.3,217.8l0.8-2.1c-4.2-1.6-8.5-3.1-12.7-4.4l-0.7,2.1C593.9,214.8,598.2,216.3,602.3,217.8z"/>
		<path fill="#FFFFFF" d="M576.9,209.6l0.6-2.2c-4.3-1.2-8.7-2.3-13.1-3.3l-0.5,2.2C568.3,207.3,572.7,208.4,576.9,209.6z"/>
		<path fill="#FFFFFF" d="M550.9,203.7l0.4-2.2c-4.4-0.8-8.8-1.5-13.3-2.1l-0.3,2.3C542.1,202.2,546.6,202.8,550.9,203.7z"/>
		<path fill="#FFFFFF" d="M760.6,354.1l1.9-1.1c-2.2-3.9-4.4-7.8-6.8-11.6l-1.9,1.2C756.2,346.3,758.4,350.2,760.6,354.1z"/>
		<path fill="#FFFFFF" d="M722.6,703.2c3-3.3,5.9-6.7,8.8-10.2l-1.8-1.4c-2.8,3.4-5.8,6.8-8.7,10.1L722.6,703.2z"/>
		<path fill="#FFFFFF" d="M739.7,682.5c2.7-3.6,5.3-7.3,7.8-10.9l-1.8-1.3c-2.5,3.7-5.1,7.3-7.8,10.8L739.7,682.5z"/>
		<path fill="#FFFFFF" d="M754.8,660.3c2.3-3.8,4.7-7.7,6.8-11.6l-1.9-1.1c-2.2,3.8-4.4,7.7-6.8,11.5L754.8,660.3z"/>
		<path fill="#FFFFFF" d="M661.6,755.3c3.8-2.4,7.5-4.9,11.1-7.5l-1.3-1.8c-3.6,2.6-7.3,5.1-11,7.5L661.6,755.3z"/>
		<path fill="#FFFFFF" d="M768,636.9c2-4,4-8.1,5.8-12.1l-2-0.9c-1.8,4-3.8,8.1-5.8,12L768,636.9z"/>
		<path fill="#FFFFFF" d="M683.4,739.8c3.5-2.8,7-5.6,10.4-8.5l-1.4-1.7c-3.3,2.9-6.8,5.7-10.3,8.4L683.4,739.8z"/>
		<path fill="#FFFFFF" d="M703.8,722.3c3.3-3.1,6.5-6.2,9.6-9.3l-1.6-1.6c-3.1,3.2-6.3,6.3-9.5,9.3L703.8,722.3z"/>
		<path fill="#FFFFFF" d="M794.8,454.4l2.2-0.3c-0.7-4.4-1.5-8.8-2.3-13.3l-2.2,0.4C793.3,445.7,794.1,450.1,794.8,454.4z"/>
		<path fill="#FFFFFF" d="M779,612.4c1.7-4.2,3.3-8.4,4.7-12.6l-2.1-0.8c-1.4,4.2-3,8.4-4.7,12.5L779,612.4z"/>
		<path fill="#FFFFFF" d="M782.2,402.7l2.1-0.7c-1.4-4.3-3-8.5-4.6-12.6l-2.1,0.8C779.2,394.3,780.8,398.5,782.2,402.7z"/>
		<path fill="#FFFFFF" d="M789.6,428.3l2.2-0.5c-1.1-4.3-2.3-8.7-3.5-13l-2.2,0.7C787.4,419.7,788.6,424,789.6,428.3z"/>
		<path fill="#FFFFFF" d="M799.9,480.8c-0.3-4.4-0.7-8.9-1.2-13.3l-2.3,0.2c0.5,4.4,0.8,8.9,1.2,13.3L799.9,480.8z"/>
		<path fill="#FFFFFF" d="M794.4,560.9c0.9-4.3,1.7-8.8,2.4-13.3l-2.2-0.3c-0.7,4.3-1.5,8.8-2.3,13.1L794.4,560.9z"/>
		<path fill="#FFFFFF" d="M798.7,534.4c0.5-4.4,0.9-8.9,1.3-13.3l-2.3-0.2c-0.3,4.4-0.7,8.9-1.2,13.3L798.7,534.4z"/>
		<path fill="#FFFFFF" d="M800.4,507.6c0.1-4.4,0.1-9,0-13.4l-2.3,0.1c0.1,4.4,0.1,8.9,0,13.3H800.4z"/>
	</g>
</g>
<path fill="#EDBDA9" d="M585.1,661c-11-18.8-41.8-22.8-25.6-34.8c-0.5,0.3,6.3-5.5,7.8-7.3c0.7-0.8,1.2-1.3,1.6-1.8
	c0.2-0.4,0.5-1,0.9-1.7c0.7-1.2,3.3-7.8,2.5-5.1c0.7-2.2,1.3-4.3,1.8-6.6c0.2-1.2,0.3-1.9,0.4-2.4c0.1-1.3,0.3-2.6,0.3-3.9
	c0.2-3.5,0.3-7,0.4-10.5c0.1-7.7,0-15.4,0-23.1c0-10.2,3.3-18.2,8.6-24c-9.5-6.2-19.8-6.9-23.5-1.7l-1.3,1.9l-5.8,8.3l-0.3,0.5
	l-4.3-3.1l5.8-8.2l5.8-8.3l4.7-6.7c3.9-5.5-0.9-15.7-10.8-22.6c-9.8-6.9-21-8.1-24.9-2.6l-4.7,6.7l-5.8,8.3l-5.8,8.2l-4.3-3.1
	l26.2-37.2l0,0c0.3-0.3,0.4-0.6,0.7-0.8l34.5-48.9c6.3-8.9,3.4-21.8-6.4-28.8s-22.9-5.3-29.2,3.6l-34.5,48.9
	c-0.3,0.3-0.4,0.6-0.6,0.9h-0.1l-75.7,107.6l-20.1,39.3l-5.7-108.8c3.1-12.8,4.9-25.2-5.7-32.7c-10.6-7.5-25.3-4.9-32.7,5.7
	l-6.2,91.1c0,0-10.5,24.8-3.2,63.8l17.1,34.4c0.8,198.2,12.3,130.3,0.8,146.3l144.9,16.4c4.1-16.4,0.8-96.6,0.8-96.6
	c5.8-1.8,22.3-6.8,30.7-11.3c4-2.1,10.5-6.3,18.4-16C576.9,674.8,588.8,667.2,585.1,661z"/>
<path fill="#EDBDA9" d="M634.8,370.3c-9.8-6.9-22.9-5.3-29.3,3.6L571,422.8c-0.3,0.3-0.4,0.6-0.6,0.9h-0.1l-75.9,107.7l-0.3-0.3
	c0.1,0.4,0.2,0.8,0.2,1.3c2.6,15.9,3.8,34.4,9.3,49.8c0,0,0,0,0.1,0.1c0.1,0,0.2,0.1,0.2,0.1c0.1-0.7,1,0.2,1.5,0.8
	c0.1,0.1,0.3,0.1,0.3,0.2c0.3,0.1,0.6,0.2,0.9,0.3c2.1,0.7,4.2,1.3,6.3,1.8c0.2,0,0.3,0.1,0.5,0.1c0,0,0,0,0-0.1
	c2.3-3.2,4.7-6.4,6.9-9.7c14.2-20.2,27.2-41,39.6-62.2c6.2-10.5,15.5-16.1,25.3-17.5c-0.3-2.8-0.3-5.8-0.1-8.6l-1.1,1.6l-4.3-3.1
	l10.8-15.3c1.1-1.9,2.3-3.7,3.8-5.3l11.8-16.6l0,0c0.3-0.3,0.4-0.6,0.7-0.8l34.5-48.9C647.4,390.2,644.6,377.3,634.8,370.3z"/>
<path fill="#123544" d="M602.8,663.1c0,6.3-5.2,11.5-11.7,11.5H408.8c-6.4,0-11.8-5.2-11.8-11.5v-366c0-6.3,5.3-11.5,11.8-11.5
	h182.2c6.4,0,11.8,5.2,11.8,11.5V663.1L602.8,663.1z"/>
<polygon fill="#FFFFFF" points="584.1,328.5 579.2,328.5 569.8,328.5 559.1,328.5 550.1,328.5 549.5,328.5 537.5,328.5 507.4,328.5 
	496.9,328.5 486.3,328.5 476.2,328.5 461.2,328.5 451.8,328.5 422.4,328.5 421.3,328.5 412,328.5 406.6,328.5 406.6,370 406.6,370 
	406.6,381.2 406.6,381.2 406.6,412 406.6,412 406.6,449.3 406.6,449.3 406.6,458.6 406.6,458.6 406.6,551.3 406.6,551.3 
	406.6,559.6 406.6,559.6 406.6,602.4 406.6,602.4 406.6,613.6 406.6,613.6 406.6,641.5 407.3,641.5 416.9,641.5 438.3,641.5 
	450.5,641.5 450.5,641.5 451.8,641.5 459.8,641.5 461.2,641.5 470.4,641.5 471.7,641.5 479.9,641.5 508.4,641.5 508.9,641.5 
	519.1,641.5 544.3,641.5 554.7,641.5 557,641.5 569.4,641.5 593.4,641.5 593.4,615.9 593.4,598.8 593.4,594.8 593.4,589.6 
	593.4,579.5 593.4,575.2 593.4,563.8 593.4,458.6 593.4,449.3 593.4,425 593.4,412 593.4,356.8 593.4,346.5 593.4,328.5 "/>
<g>
	<rect x="314.7" y="756" fill="#FFFFFF" width="233.1" height="244"/>
	<path fill="#123544" d="M503.2,787.8c5.8,0.3,10.9-4.2,11.2-10c0.3-5.8-4.2-10.9-10-11.2c-5.8-0.3-10.9,4.2-11.3,10
		C492.8,782.5,497.3,787.5,503.2,787.8z"/>
	<rect x="300.4" y="799.8" fill="#123544" width="257.2" height="200.2"/>
</g>
<path fill="#EDBDA9" d="M468,680.7c0.8-2.9,1.3-5.8,1.8-8.8c-0.5-1.6,1.1-32.6-35.2-58c-16.8-11.8-36.5-9.1-45.6-8.3v75L468,680.7
	L468,680.7z"/>
<path fill="#EDBDA9" d="M627.9,574.5c2.3,8.8-2.7,17.8-11.2,20l-39,10.3c-8.5,2.3-17.3-3.1-19.6-11.8l0,0c-2.3-8.8,2.7-17.8,11.2-20
	l39-10.3C616.7,560.3,625.6,565.7,627.9,574.5L627.9,574.5z"/>
<path fill="#EDBDA9" d="M627.1,535.8c2.3,9.2-2.8,18.3-11.3,20.4l-39.2,9.7c-8.5,2.1-17.3-3.6-19.5-12.8l0,0
	c-2.3-9.2,2.8-18.3,11.3-20.4l39.2-9.7C616.1,521,624.8,526.7,627.1,535.8L627.1,535.8z"/>
<path fill="#EDBDA9" d="M623.7,484.4c4.7,10,1.3,21.4-7.6,25.6l-40.8,19.2c-8.9,4.2-19.9-0.5-24.6-10.5l0,0
	c-4.7-10-1.3-21.4,7.6-25.6l40.8-19.3C608,469.8,619,474.4,623.7,484.4L623.7,484.4z"/>
<path fill="#FFD11D" d="M767,468.1c0,7.7-6.3,13.9-13.9,13.9h-300c-7.7,0-13.9-6.3-13.9-13.9V322.7c0-7.7,6.3-13.9,13.9-13.9h300.1
	c7.7,0,13.9,6.3,13.9,13.9L767,468.1L767,468.1z"/>
<g>
	<g>
		<path fill="#123544" d="M515.8,408.7c-15.4,0-27.9-11.7-27.9-26.1v-20.9c0-14.3,12.5-21.8,27.9-21.8c15.4,0,27.9,7.4,27.9,21.8
			v20.9C543.8,397,531.3,408.7,515.8,408.7z M515.8,348.4c-11.1,0-20.1,4.4-20.1,14.6v18.8c0,10.2,9,18.4,20.1,18.4
			s20.1-8.2,20.1-18.4V363C536,352.8,526.9,348.4,515.8,348.4z"/>
	</g>
	<g>
		<path fill="#F44336" d="M552.3,379.3h-74.2c-0.3,0-0.6,0-0.8,0v53.5h75V379.3z"/>
		<rect x="477.4" y="432.9" fill="#123544" width="75" height="3.5"/>
	</g>
	<g>
		<g>
			<g>
				<g>
					<rect x="512" y="392.2" fill="#FFFFFF" width="5.7" height="5.4"/>
					<rect x="500.6" y="392.2" fill="#FFFFFF" width="5.8" height="5.4"/>
					<rect x="523.4" y="392.2" fill="#FFFFFF" width="5.7" height="5.4"/>
				</g>
			</g>
		</g>
		<g>
			<g>
				<g>
					<rect x="512" y="402.9" fill="#FFFFFF" width="5.7" height="5.4"/>
					<rect x="500.6" y="402.9" fill="#FFFFFF" width="5.8" height="5.4"/>
					<rect x="523.4" y="402.9" fill="#FFFFFF" width="5.7" height="5.4"/>
				</g>
			</g>
		</g>
		<g>
			<g>
				<g>
					<rect x="512" y="413.7" fill="#FFFFFF" width="5.7" height="5.4"/>
					<rect x="500.6" y="413.7" fill="#FFFFFF" width="5.8" height="5.4"/>
					<rect x="523.4" y="413.7" fill="#FFFFFF" width="5.7" height="5.4"/>
				</g>
			</g>
		</g>
	</g>
</g>
<polygon fill="#FFD11D" points="469.9,519.7 469.9,476.4 516.9,476.4 "/>
<path opacity="0.3" fill="#FFFFFF" enable-background="new    " d="M568.2,495.3c0,0,4.6,6.1,7.8,12.3c2.7,5.2,4,10.7,4,10.7
	l-12.7,6.5c0,0-5.4-2.4-9.1-10.2c-3.5-7.4-2.6-12.7-2.6-12.7L568.2,495.3z"/>
<path opacity="0.3" fill="#FFFFFF" enable-background="new    " d="M371.9,472.1c0,0-4.3-4.8-12.5-5.2c-0.1,0-0.2,0-0.2,0
	c-0.3,4.9-1.5,22.6-1.8,28.4c0.1,0,0.2,0,0.3,0c6.9,0,14.4-2,14.4-2L371.9,472.1z"/>
<path opacity="0.3" fill="#FFFFFF" enable-background="new    " d="M578.7,535.3c0,0,3.3,6.4,5.1,12.7c1.6,5.3,1.7,10.7,1.7,10.7
	l-14.2,4.2c0,0-4.9-3.2-6.9-11c-1.9-7.5,0.2-12.3,0.2-12.3L578.7,535.3z"/>
<path opacity="0.3" fill="#FFFFFF" enable-background="new    " d="M576.8,575.9c0,0,3,6,4.8,11.9c1.4,5,1.7,10,1.7,10l-12.6,3.7
	c0,0-4.4-3-6.3-10.3c-1.8-7.1,0-11.5,0-11.5L576.8,575.9z"/>
<g>
	<g>
		<path fill="#FFFFFF" d="M692.5,423.9h-67.3c-14.7,0-26.6-11.9-26.6-26.6v-6.4c0-14.7,11.9-26.6,26.6-26.6h67.3
			c14.7,0,26.6,11.9,26.6,26.6v6.4C719.1,412,707.2,423.9,692.5,423.9z M625.2,368.6c-12.3,0-22.3,10-22.3,22.3v6.4
			c0,12.3,10,22.3,22.3,22.3h67.3c12.3,0,22.3-10,22.3-22.3v-6.4c0-12.3-10-22.3-22.3-22.3H625.2z"/>
	</g>
	<g>
		<path fill="#FFFFFF" d="M623,405.7c-5,0-9.4-3.2-11-7.9c-0.4-1.1,0.2-2.4,1.4-2.8c1.1-0.4,2.4,0.2,2.8,1.4c1,2.9,3.8,4.9,6.9,4.9
			c4,0,7.3-3.3,7.3-7.3c0-4-3.3-7.3-7.3-7.3c-1.5,0-2.9,0.4-4.1,1.3c-1,0.7-2.3,0.4-3-0.6c-0.7-1-0.4-2.3,0.6-3c1.9-1.3,4.2-2,6.6-2
			c6.4,0,11.6,5.2,11.6,11.6C634.6,400.5,629.4,405.7,623,405.7z"/>
	</g>
	<g>
		<g>
			<path fill="#F4F4F4" d="M658.9,395.2l-3.1-1.4l3.1-1.4c0.5-0.2,0.8-0.7,0.7-1.3c0-0.4-0.2-0.9-0.6-1.5c-0.4-0.7-0.7-1.1-1.1-1.3
				c-0.5-0.3-1.1-0.3-1.5,0l-2.8,2l0.4-3.3c0.1-0.6-0.2-1.1-0.7-1.4c-0.4-0.2-0.9-0.3-1.7-0.3c-0.8,0-1.3,0.1-1.7,0.3
				c-0.6,0.3-0.8,0.8-0.7,1.4l0.4,3.4l-2.7-2c-0.4-0.3-1-0.4-1.5-0.1c-0.3,0.2-0.7,0.6-1.1,1.3c-0.4,0.7-0.6,1.2-0.6,1.6
				c0,0.6,0.3,1.1,0.8,1.3l3.1,1.4l-3.1,1.4c-0.5,0.2-0.8,0.7-0.8,1.3c0,0.4,0.2,0.9,0.6,1.6c0.4,0.7,0.7,1.1,1.1,1.3
				c0.5,0.3,1.1,0.3,1.5,0l2.7-2l-0.4,3.3c-0.1,0.6,0.2,1.1,0.7,1.4c0.4,0.2,0.9,0.3,1.7,0.3c0.8,0,1.3-0.1,1.7-0.3
				c0.6-0.3,0.8-0.8,0.7-1.3l-0.4-3.4l2.7,2c0.4,0.3,1,0.4,1.5,0c0.3-0.2,0.7-0.6,1.1-1.3c0.4-0.7,0.6-1.1,0.6-1.5
				C659.8,395.9,659.5,395.4,658.9,395.2z"/>
		</g>
		<g>
			<path fill="#F4F4F4" d="M682.1,391.1c0-0.4-0.2-0.9-0.6-1.5c-0.4-0.7-0.7-1.1-1.1-1.3c-0.5-0.3-1.1-0.3-1.5,0l-2.8,2l0.4-3.3
				c0.1-0.6-0.2-1.1-0.7-1.4c-0.4-0.2-0.9-0.3-1.7-0.3c-0.8,0-1.3,0.1-1.7,0.3c-0.6,0.3-0.8,0.8-0.7,1.4l0.4,3.4l-2.7-2
				c-0.4-0.3-1-0.4-1.5-0.1c-0.3,0.2-0.7,0.6-1.1,1.3c-0.4,0.7-0.6,1.2-0.6,1.6c0,0.6,0.3,1.1,0.8,1.3l3.1,1.4l-3.1,1.4
				c-0.5,0.2-0.8,0.7-0.8,1.3c0,0.4,0.2,0.9,0.6,1.6c0.4,0.7,0.7,1.1,1.1,1.3c0.5,0.3,1.1,0.3,1.5,0l2.7-2l-0.4,3.3
				c-0.1,0.6,0.2,1.1,0.7,1.4c0.4,0.2,0.9,0.3,1.7,0.3c0.8,0,1.3-0.1,1.7-0.3c0.6-0.3,0.8-0.8,0.7-1.3l-0.4-3.4l2.7,2
				c0.4,0.3,1,0.4,1.5,0c0.3-0.2,0.7-0.6,1.1-1.3c0.4-0.7,0.6-1.2,0.6-1.5c0-0.6-0.3-1.1-0.8-1.3l-3.1-1.4l3.1-1.4
				C681.9,392.2,682.2,391.7,682.1,391.1z"/>
		</g>
		<g>
			<path fill="#F4F4F4" d="M703.8,395.2l-3.1-1.4l3.1-1.4c0.5-0.2,0.8-0.7,0.7-1.3c0-0.4-0.2-0.9-0.6-1.5c-0.4-0.7-0.7-1.1-1.1-1.3
				c-0.5-0.3-1.1-0.3-1.5,0l-2.8,2l0.4-3.3c0.1-0.6-0.2-1.1-0.7-1.4c-0.4-0.2-0.9-0.3-1.7-0.3c-0.8,0-1.3,0.1-1.7,0.3
				c-0.6,0.3-0.8,0.8-0.7,1.4l0.4,3.4l-2.7-2c-0.4-0.3-1-0.4-1.5-0.1c-0.3,0.2-0.7,0.6-1.1,1.3c-0.4,0.7-0.6,1.2-0.6,1.6
				c0,0.6,0.3,1.1,0.8,1.3l3.1,1.4l-3.1,1.4c-0.5,0.2-0.8,0.7-0.8,1.3c0,0.4,0.2,0.9,0.6,1.6c0.4,0.7,0.7,1.1,1.1,1.3
				c0.5,0.3,1.1,0.3,1.5,0l2.7-2l-0.4,3.3c-0.1,0.6,0.2,1.1,0.7,1.4c0.4,0.2,0.9,0.3,1.7,0.3c0.8,0,1.3-0.1,1.7-0.3
				c0.6-0.3,0.8-0.8,0.7-1.3l-0.4-3.4l2.7,2c0.4,0.3,1,0.4,1.5,0c0.3-0.2,0.7-0.6,1.1-1.3c0.4-0.7,0.6-1.1,0.6-1.5
				C704.6,395.9,704.3,395.4,703.8,395.2z"/>
		</g>
	</g>
</g>
</svg>
